<svg xmlns="http://www.w3.org/2000/svg" xml:space="preserve" width="1000px" height="188.326px" x="0px" y="0px" viewBox="0 0 1000 188.326"><g fill="#673398"><path d="M97.698.549h.817l-2.583.253c16.083.089 32.187 4.004 46.293 11.79 18.295 9.977 33.176 26.092 41.594 45.167 5.506 12.447 8.407 26.08 8.116 39.705.076 22.109-8.216 44.032-22.482 60.878-20.6 2.609-41.936 4.193-62.233-1.204-12.041-2.995-22.748-10.763-29.601-21.075-6.961-12.321-4.58-29.375 5.974-38.951 7.347-6.666 17.952-9.522 27.651-7.356 8.583 1.755 16.209 7.348 20.613 14.906 4.3-2.261 8.57-4.58 12.878-6.83-3.035-5.104-6.778-9.849-11.46-13.542-7.873-6.234-17.857-9.616-27.866-9.896-9.497-.113-19.018 2.724-26.827 8.147-15.864 10.779-23.712 32.172-18.228 50.6 3.503 12.505 12.688 22.78 23.408 29.749 8.526 5.479 18.401 8.45 28.302 10.243 13.607 2.407 27.5 1.52 41.184.354-1.375 1.412-3.441 1.33-5.247 1.653-14.6 2.166-29.659 2.236-44.088-1.152-13.843-3.207-27.025-10.035-36.856-20.403-14.45-15.604-17.833-40.963-6.48-59.225 5.929-9.724 14.626-18.085 25.44-22.057 11.807-4.403 25.256-4.358 37 .234 1.932-4.479 4.035-8.881 5.93-13.373-19.372-7.918-42.513-5.866-60.104 5.511-9.628 6.228-17.553 14.938-23.317 24.826-6.423 11.371-8.502 24.939-6.539 37.793 2.591 17.332 12.062 33.555 25.947 44.262 6.753 5.333 14.736 8.925 22.952 11.352 10.618 3.155 21.695 4.528 32.751 4.781 1.564.025 3.134.089 4.693.285-2.224 1.154-4.801.806-7.216.877-13.132.271-26.365-1.77-38.68-6.368-9.369-3.528-18.212-8.793-25.16-16.064-7.292-7.241-13.423-15.812-16.978-25.505-4.174-11.472-5.48-24.084-3.244-36.114 2.711-14.31 10.883-27.175 21.584-36.893 12.833-11.726 30.21-18.384 47.605-18.099.006-4.916-.007-9.838.013-14.753-15.014.006-30.034 3.927-43.014 11.504-17.154 9.977-30.635 26.01-37.788 44.496-5.25 13.848-7.214 29.279-3.649 43.79 4.081 17.726 15.337 33.499 30.415 43.584 2.349 1.724 5.035 2.921 7.342 4.714-1.065-.07-2.147-.197-3.105-.703-4.859-2.326-9.4-5.258-13.715-8.477-7.765-5.872-15.088-12.518-20.645-20.568-6.948-9.648-12.429-20.45-15.456-31.984C.762 110.743.111 99.58.87 88.591 2.702 65.026 13.8 42.373 31.187 26.377c14.146-13.15 32.341-21.873 51.484-24.54 4.974-.8 10.029-.724 15.027-1.288zM241.035 40.755c14.981.038 29.969.007 44.952.019 7.602.07 15.272-.399 22.784 1.046 6.557 1.166 13.24 3.699 17.731 8.83 4.814 5.233 6.373 12.613 6.239 19.542.007 5.739-1.533 11.694-5.321 16.129-2.774 3.37-6.442 5.917-10.337 7.823 6.132 1.711 11.973 5.174 15.666 10.46 5.163 7.214 6.316 16.584 5.111 25.199-1.063 7.98-5.726 15.292-12.277 19.915-7.639 5.378-17.078 7.57-26.294 7.945-19.429.005-38.858.019-58.288-.008.014-38.965-.05-77.934.034-116.9m25.173 20.126c.007 9.015.007 18.035 0 27.049 8.709.044 17.414 0 26.125.025 4.213.058 8.665-1.063 11.846-3.958 3.205-2.99 3.819-7.722 3.402-11.877-.26-3.364-2.053-6.626-4.942-8.433-3.598-2.318-8.024-2.761-12.206-2.818-8.077.018-16.154 0-24.225.012m0 44.863c.007 10.591.007 21.175.007 31.769 9.54.037 19.081.011 28.625.011 4.189-.145 8.565-.866 12.101-3.273 3.129-2.129 5.048-5.746 5.371-9.476.412-4.258-.031-8.87-2.399-12.539-3.187-4.58-9.04-6.313-14.374-6.499-9.776-.019-19.556-.025-29.331.007zM437.233 40.781c30.832-.025 61.664.006 92.5-.013.006 7.241.013 14.481-.007 21.722-11.086-.019-22.171-.012-33.258-.006-.011 31.724 0 63.448-.005 95.173-8.665.026-17.325.019-25.992 0 .044-31.725-.019-63.442.032-95.167-11.093-.032-22.184.013-33.276-.019.032-7.227.026-14.456.006-21.69zM352.019 40.787c7.817-.032 15.634-.006 23.451-.013-.005 6.443.013 12.885-.013 19.328-7.817.025-15.634.006-23.443.012.023-6.443.005-12.885.005-19.327zM398.104 47.559c7.824.025 15.652.032 23.477 0 .019 8.451-.032 16.9.026 25.352 5.636.006 11.274.013 16.913-.007.013 5.239-.024 10.479.013 15.717-5.651.013-11.295.006-16.946.006 0 14.355-.019 28.709.007 43.063.126 2.522.412 5.657 2.749 7.158 2.415 1.318 5.29 1.399 7.982 1.368 3.801-.342 7.62-.362 11.434-.622-.006 6.045.005 12.095-.006 18.138a219.23 219.23 0 0 1-24.015.628c-6.265-.418-13.227-1.646-17.51-6.684-3.338-3.686-4.073-8.849-4.129-13.633 0-16.477.006-32.946 0-49.423-4.688.006-9.375.006-14.063.006.013-5.245-.032-10.484.026-15.729 4.667.033 9.342.013 14.018.013.049-8.451-.002-16.9.024-25.351zM920.086 47.559c7.823.025 15.64.032 23.464 0 .051 8.451-.02 16.907.032 25.358 5.636-.006 11.274 0 16.92-.013-.008 5.233-.021 10.465.019 15.698-5.657.05-11.308.006-16.959.025 0 13.715.013 27.436-.006 41.15-.019 2.966-.089 6.392 2.098 8.696 2.313 1.641 5.302 1.686 8.032 1.756 4.01-.278 8.026-.398 12.048-.64 0 6.037.014 12.068-.005 18.104-7.78.724-15.603.843-23.409.705-5.935-.33-12.32-1.317-16.931-5.393-3.827-3.444-5.303-8.702-5.303-13.714-.007-16.888-.007-33.776 0-50.665-4.695-.006-9.389.006-14.082 0 .031-5.245-.013-10.484.024-15.723 4.675.026 9.357 0 14.032.007.05-8.451.001-16.9.026-25.351z"/><path d="M544.163 71.321c9.174-1.299 18.828-.799 27.467 2.768 8.704 3.414 16.072 10.11 20.222 18.491 4.827 9.578 5.859 20.714 4.441 31.236-1.47 10.712-6.761 21.178-15.578 27.65-9.205 6.88-21.151 9.116-32.421 8.185-10.73-.685-21.469-5.168-28.608-13.36-6.441-7.315-9.812-16.97-10.376-26.624-.829-11.346 1.426-23.317 8.242-32.636 6.252-8.584 16.179-14.114 26.611-15.71m3.105 17.68c-6.549 1.755-11.376 7.59-13.101 13.986-1.963 7.304-2.109 15.083-.569 22.482 1.128 5.315 3.73 10.629 8.329 13.758 4.328 3.104 9.99 3.53 15.104 2.764 5.84-.855 10.959-4.953 13.321-10.332 3.174-6.963 3.547-14.906 2.725-22.411-.635-6.069-2.688-12.379-7.45-16.459-4.872-4.485-12.125-5.265-18.359-3.788zM630.005 88.786c4.436-10.965 16.027-18.548 27.86-18.086-.006 7.298.019 14.602-.013 21.899-5.752-.494-11.934-.082-16.881 3.179-4.922 2.959-7.793 8.396-8.938 13.881-1.286 5.556-.881 11.281-.938 16.933.007 10.357-.012 20.708.007 31.065-7.816.026-15.634.019-23.451 0 .006-28.254.006-56.506-.007-84.759 7.449.026 14.894.033 22.343 0 .031 5.295-.001 10.592.018 15.888zM690.868 88.887c4.423-10.965 15.959-18.586 27.798-18.206.031 7.304.007 14.607.013 21.912-6.037-.514-12.612.006-17.623 3.749-5.289 3.675-7.88 10.085-8.615 16.295-.911 7.783-.404 15.64-.532 23.456 0 7.185-.012 14.374.007 21.563-7.772.026-15.547.019-23.312 0-.013-28.246-.031-56.493.006-84.746 7.399-.007 14.791.02 22.19-.007.057 5.328-.071 10.657.068 15.984zM738.982 79.194c7.728-5.865 17.503-8.863 27.194-8.489 11.289-.259 22.597 4.701 29.831 13.417 8.411 10.187 11.61 23.997 10.502 36.982-20.34-.063-40.675-.094-61.01.014.462 5.522 1.412 11.497 5.353 15.704 4.391 4.625 11.174 5.809 17.295 5.435 6.828-.457 13.765-4.416 16.482-10.895 6.842-.008 13.683.011 20.523-.008-2.058 6.537-5.219 12.873-10.027 17.832-6.771 6.753-16.382 9.972-25.781 10.522-10.004.722-20.442-1.14-28.956-6.633-7.646-4.948-13.126-12.828-15.844-21.456-2.559-8.101-3.002-16.823-1.653-25.199 1.781-10.622 7.337-20.789 16.091-27.226m11.009 15.394c-2.888 3.168-3.883 7.449-4.504 11.568 12.567.036 25.144.089 37.711-.02-1.325-6.265-3.774-13.431-10.066-16.262-7.672-3.008-17.642-1.887-23.141 4.714zM853 73.506c6.659-3.06 14.222-3.326 21.374-2.293 6.227.899 12.474 3.617 16.471 8.627 3.852 4.739 5.39 10.877 6.049 16.832.679 5.101.356 10.249.431 15.382-.006 15.203.007 30.399-.006 45.603-7.778.013-15.552.037-23.33-.013.024-16.262.031-32.517.006-48.771-.229-5.386-.659-11.251-4.093-15.666-3.344-3.979-9.053-4.359-13.859-3.865-4.885.394-9.712 3.085-11.859 7.616-2.914 6.048-2.964 12.954-2.945 19.529-.007 13.729 0 27.448-.007 41.177-7.81.011-15.621.011-23.431 0 .005-28.262-.014-56.514.005-84.773 7.437.039 14.873.039 22.317.006.05 4.042-.045 8.09.058 12.131 3.057-4.96 7.359-9.286 12.819-11.522zM352.031 72.923c7.812-.026 15.615.007 23.425-.013.034 28.246 0 56.5.021 84.746-7.817.026-15.641.019-23.458.008.018-28.247-.014-56.493.012-84.741zM964.777 73.247c4.796.019 9.598.006 14.398.006-.013 1.21-.019 2.42-.006 3.629-1.735.007-3.459.007-5.176-.019-.045 3.813-.006 7.627-.037 11.441a758.95 758.95 0 0 0-3.966-.013c-.008-3.807.037-7.615-.008-11.416-1.754.013-3.496.02-5.231.006-.005-1.208.007-2.424.026-3.634zM981.229 73.247c1.869 0 3.743.006 5.633-.007 1.386 3.256 2.678 6.557 4.034 9.825 1.394-3.256 2.667-6.563 4.074-9.818 1.861.006 3.725.006 5.604-.007.013 5.018-.006 10.035 0 15.051-1.284-.006-2.57-.006-3.833-.006a641.295 641.295 0 0 1 0-8.989c-1.272 2.965-2.482 5.955-3.68 8.945a87 87 0 0 1-4.237.044c-1.286-3.06-2.483-6.157-3.832-9.191.05 3.06.063 6.125.024 9.185-1.273.007-2.528.02-3.775.026-.018-5.018 0-10.041-.012-15.058z"/></g></svg>