<svg xmlns="http://www.w3.org/2000/svg" width="757" height="215.7" filter="invert(93%) hue-rotate(180deg)" version="1.1" viewBox="0 0 757 215.7"><defs><style class="style-fonts">@font-face{font-family:&quot;Virgil&quot;;src:url(https://excalidraw.com/Virgil.woff2)}@font-face{font-family:&quot;Cascadia&quot;;src:url(https://excalidraw.com/Cascadia.woff2)}</style></defs><rect width="757" height="215.7" x="0" y="0" fill="#f8f9fa"/><g><text x="0" y="0" fill="#1e1e1e" direction="ltr" dominant-baseline="text-before-edge" font-family="Cascadia, Segoe UI Emoji" font-size="28" text-anchor="start" style="white-space:pre" transform="translate(15 23.5) rotate(0 360.9375 16.80000000000001)">https://jeongje.vercel.app:443/posts?tag=WEB</text></g><g fill-opacity=".4" stroke-linecap="round" stroke-opacity=".4"><path fill="#ffc9c9" stroke="none" stroke-width="0" d="M15.08 -1.53 L131.42 1.9 L136.32 1.46 L139.63 11.02 L137.92 47.42 L133.19 51.38 L126.01 56.05 L9.18 54.3 L4.56 51.9 L0.9 44.63 L-1.47 9.67 L2.41 4.26 L7.18 -0.03 L12.83 1.42" transform="translate(10 13.5) rotate(0 69 27.5)"/><path fill="none" stroke="#e03131" stroke-width="1" d="M13.75 0 M13.75 0 C41.29 -1.65, 69.99 1.39, 124.25 0 M13.75 0 C50 0.27, 85.88 0.26, 124.25 0 M124.25 0 C132.83 -0.71, 136.66 5.51, 138 13.75 M124.25 0 C131.97 1.38, 137.67 3.15, 138 13.75 M138 13.75 C139.73 19.18, 139.33 25.53, 138 41.25 M138 13.75 C137.94 19.31, 137.96 26.69, 138 41.25 M138 41.25 C139.45 49.78, 132.1 56.06, 124.25 55 M138 41.25 C136.42 49.83, 132.26 54.62, 124.25 55 M124.25 55 C89.11 52.91, 55.38 55.38, 13.75 55 M124.25 55 C82.99 54.45, 43.25 54.8, 13.75 55 M13.75 55 C2.86 56.24, 0.41 51.97, 0 41.25 M13.75 55 C4.67 54.68, 1.34 52.39, 0 41.25 M0 41.25 C1.29 30.4, -1.29 20.82, 0 13.75 M0 41.25 C-0.11 34.46, 0.08 25.56, 0 13.75 M0 13.75 C0.18 3.75, 3.6 1.06, 13.75 0 M0 13.75 C-2.28 3.63, 6.49 1.13, 13.75 0" transform="translate(10 13.5) rotate(0 69 27.5)"/></g><g fill-opacity=".4" stroke-linecap="round" stroke-opacity=".4"><path fill="#b2f2bb" stroke="none" stroke-width="0" d="M14.34 -1.36 L283.94 0.62 L291.99 4.31 L296.08 9.63 L296.66 45.59 L293.14 53.51 L290.17 55.62 L280.58 55.44 L10.48 53.89 L5.99 52.32 L-0.22 47.4 L1.33 14.09 L0.06 9.52 L3.28 3.08 L7.35 -0.87 L12.71 1.15" transform="translate(150 12) rotate(0 148 27.5)"/><path fill="none" stroke="#2f9e44" stroke-width="1" d="M13.75 0 M13.75 0 C86.51 1.53, 162.42 0.83, 282.25 0 M13.75 0 C79.37 0.03, 145.51 -0.03, 282.25 0 M282.25 0 C291.01 -1.75, 296.21 5.93, 296 13.75 M282.25 0 C293.3 -0.24, 295.39 3.84, 296 13.75 M296 13.75 C296.68 19.53, 295.57 25.17, 296 41.25 M296 13.75 C295.34 20.66, 296.05 28.7, 296 41.25 M296 41.25 C294.57 48.66, 289.98 53.47, 282.25 55 M296 41.25 C296.4 52.48, 292.82 53.51, 282.25 55 M282.25 55 C188.32 57.12, 95.59 55.91, 13.75 55 M282.25 55 C211.76 55.08, 141.82 54.7, 13.75 55 M13.75 55 C6.23 54.28, -0.4 51.92, 0 41.25 M13.75 55 C6.68 55.65, -0.17 50.52, 0 41.25 M0 41.25 C2.11 35.51, 0.41 24.91, 0 13.75 M0 41.25 C-0.67 31.68, -0.81 22.38, 0 13.75 M0 13.75 C-0.34 4.89, 4.01 1.29, 13.75 0 M0 13.75 C-0.48 6.5, 5.16 0.72, 13.75 0" transform="translate(150 12) rotate(0 148 27.5)"/></g><g fill-opacity=".4" stroke-linecap="round" stroke-opacity=".4"><path fill="#a5d8ff" stroke="none" stroke-width="0" d="M13.75 0 L52.47 0.21 L55.27 0.86 L59.56 3.44 L62.14 7.73 L63 13.75 L62.79 44.47 L62.14 47.27 L59.56 51.56 L55.27 54.14 L49.25 55 L10.53 54.79 L7.73 54.14 L3.44 51.56 L1.93 49.63 L0.21 44.47 L0.21 10.53 L1.93 5.37 L5.37 1.93 L7.73 0.86 L13.75 0" transform="translate(447 11) rotate(0 31.5 27.5)"/><path fill="none" stroke="#1971c2" stroke-width="1" d="M13.75 0 M13.75 0 C24.2 0, 34.64 0, 49.25 0 M13.75 0 C22.89 0, 32.03 0, 49.25 0 M49.25 0 C58.42 0, 63 4.58, 63 13.75 M49.25 0 C58.42 0, 63 4.58, 63 13.75 M63 13.75 C63 23.14, 63 32.52, 63 41.25 M63 13.75 C63 19.82, 63 25.89, 63 41.25 M63 41.25 C63 50.42, 58.42 55, 49.25 55 M63 41.25 C63 50.42, 58.42 55, 49.25 55 M49.25 55 C35.22 55, 21.19 55, 13.75 55 M49.25 55 C37.05 55, 24.86 55, 13.75 55 M13.75 55 C4.58 55, 0 50.42, 0 41.25 M13.75 55 C4.58 55, 0 50.42, 0 41.25 M0 41.25 C0 33.64, 0 26.03, 0 13.75 M0 41.25 C0 33.91, 0 26.57, 0 13.75 M0 13.75 C0 4.58, 4.58 0, 13.75 0 M0 13.75 C0 4.58, 4.58 0, 13.75 0" transform="translate(447 11) rotate(0 31.5 27.5)"/></g><g fill-opacity=".4" stroke-linecap="round" stroke-opacity=".4"><path fill="#eaddd7" stroke="none" stroke-width="0" d="M13.75 0 L83.25 0 L86.47 0.21 L91.63 1.93 L95.07 5.37 L96.79 10.53 L97 41.25 L96.79 44.47 L95.07 49.63 L91.63 53.07 L89.27 54.14 L83.25 55 L13.75 55 L10.53 54.79 L5.37 53.07 L1.93 49.63 L0.21 44.47 L0.21 10.53 L1.93 5.37 L5.37 1.93 L7.73 0.86 L13.75 0" transform="translate(510 11) rotate(0 48.5 27.5)"/><path fill="none" stroke="#846358" stroke-width="1" d="M13.75 0 M13.75 0 C37.89 0, 62.03 0, 83.25 0 M13.75 0 C34.09 0, 54.43 0, 83.25 0 M83.25 0 C92.42 0, 97 4.58, 97 13.75 M83.25 0 C92.42 0, 97 4.58, 97 13.75 M97 13.75 C97 21.84, 97 29.92, 97 41.25 M97 13.75 C97 21.25, 97 28.76, 97 41.25 M97 41.25 C97 50.42, 92.42 55, 83.25 55 M97 41.25 C97 50.42, 92.42 55, 83.25 55 M83.25 55 C56.38 55, 29.51 55, 13.75 55 M83.25 55 C64.04 55, 44.84 55, 13.75 55 M13.75 55 C4.58 55, 0 50.42, 0 41.25 M13.75 55 C4.58 55, 0 50.42, 0 41.25 M0 41.25 C0 33.14, 0 25.03, 0 13.75 M0 41.25 C0 34.82, 0 28.39, 0 13.75 M0 13.75 C0 4.58, 4.58 0, 13.75 0 M0 13.75 C0 4.58, 4.58 0, 13.75 0" transform="translate(510 11) rotate(0 48.5 27.5)"/></g><g fill-opacity=".4" stroke-linecap="round" stroke-opacity=".4"><path fill="#ffd8a8" stroke="none" stroke-width="0" d="M13.75 0 L124.25 0 L130.27 0.86 L134.56 3.44 L137.14 7.73 L137.79 10.53 L138 41.25 L137.14 47.27 L136.07 49.63 L132.63 53.07 L130.27 54.14 L124.25 55 L13.75 55 L7.73 54.14 L3.44 51.56 L1.93 49.63 L0.21 44.47 L0.21 10.53 L1.93 5.37 L5.37 1.93 L7.73 0.86 L13.75 0" transform="translate(609 10) rotate(0 69 27.5)"/><path fill="none" stroke="#f08c00" stroke-width="1" d="M13.75 0 M13.75 0 C46.09 0, 78.43 0, 124.25 0 M13.75 0 C49.16 0, 84.57 0, 124.25 0 M124.25 0 C133.42 0, 138 4.58, 138 13.75 M124.25 0 C133.42 0, 138 4.58, 138 13.75 M138 13.75 C138 21.25, 138 28.76, 138 41.25 M138 13.75 C138 19.77, 138 25.79, 138 41.25 M138 41.25 C138 50.42, 133.42 55, 124.25 55 M138 41.25 C138 50.42, 133.42 55, 124.25 55 M124.25 55 C93.71 55, 63.18 55, 13.75 55 M124.25 55 C94.86 55, 65.47 55, 13.75 55 M13.75 55 C4.58 55, 0 50.42, 0 41.25 M13.75 55 C4.58 55, 0 50.42, 0 41.25 M0 41.25 C0 34.82, 0 28.39, 0 13.75 M0 41.25 C0 35.54, 0 29.82, 0 13.75 M0 13.75 C0 4.58, 4.58 0, 13.75 0 M0 13.75 C0 4.58, 4.58 0, 13.75 0" transform="translate(609 10) rotate(0 69 27.5)"/></g><g stroke-linecap="round"><g fill-opacity=".4" stroke-opacity=".4"><path fill="none" stroke="#e03131" stroke-width="2" d="M0 0 C0 12, 0 60, 0 72 M0 0 C0 12, 0 60, 0 72" transform="translate(79 68.5) rotate(0 0 36)"/></g></g><g fill-opacity=".4" stroke-opacity=".4"><text x="0" y="0" fill="#e03131" direction="ltr" dominant-baseline="text-before-edge" font-family="Cascadia, Segoe UI Emoji" font-size="28" text-anchor="start" style="white-space:pre" transform="translate(12 146.5) rotate(0 65.625 16.80000000000001)">Protocol</text></g><g stroke-linecap="round"><g fill-opacity=".4" stroke-opacity=".4"><path fill="none" stroke="#2f9e44" stroke-width="2" d="M0 0 C-0.17 12.83, -0.83 64.17, -1 77 M0 0 C-0.17 12.83, -0.83 64.17, -1 77" transform="translate(306 68.5) rotate(0 -0.5 38.5)"/></g></g><g fill-opacity=".4" stroke-opacity=".4"><text x="0" y="0" fill="#2f9e44" direction="ltr" dominant-baseline="text-before-edge" font-family="Cascadia, Segoe UI Emoji" font-size="28" text-anchor="start" style="white-space:pre" transform="translate(275 147.5) rotate(0 32.8125 16.80000000000001)">Host</text></g><g stroke-linecap="round"><g fill-opacity=".4" stroke-opacity=".4"><path fill="none" stroke="#1971c2" stroke-width="2" d="M0 0 C0 12.33, 0 61.67, 0 74 M0 0 C0 12.33, 0 61.67, 0 74" transform="translate(482 68.5) rotate(0 0 37)"/></g></g><g fill-opacity=".4" stroke-opacity=".4"><text x="0" y="0" fill="#1971c2" direction="ltr" dominant-baseline="text-before-edge" font-family="Cascadia, Segoe UI Emoji" font-size="28" text-anchor="start" style="white-space:pre" transform="translate(447 148.5) rotate(0 32.8125 16.80000000000001)">Port</text></g><g stroke-linecap="round"><g fill-opacity=".4" stroke-opacity=".4"><path fill="none" stroke="#846358" stroke-width="2" d="M0 0 C0 12.67, 0 63.33, 0 76 M0 0 C0 12.67, 0 63.33, 0 76" transform="translate(565 66.5) rotate(0 0 38)"/></g></g><g fill-opacity=".4" stroke-opacity=".4"><text x="0" y="0" fill="#846358" direction="ltr" dominant-baseline="text-before-edge" font-family="Cascadia, Segoe UI Emoji" font-size="28" text-anchor="start" style="white-space:pre" transform="translate(537 146.5) rotate(0 32.8125 16.80000000000001)">PATH</text></g><g stroke-linecap="round"><g fill-opacity=".4" stroke-opacity=".4"><path fill="none" stroke="#f08c00" stroke-width="2" d="M0 0 C0 7, 0 29.5, 0 42 C0 54.5, 0 69.5, 0 75 M0 0 C0 7, 0 29.5, 0 42 C0 54.5, 0 69.5, 0 75" transform="translate(683 66.5) rotate(0 0 37.5)"/></g></g><g fill-opacity=".4" stroke-opacity=".4"><text x="0" y="0" fill="#f08c00" direction="ltr" dominant-baseline="text-before-edge" font-family="Cascadia, Segoe UI Emoji" font-size="28" text-anchor="start" style="white-space:pre" transform="translate(645 138.5) rotate(0 49.21875 33.60000000000002)">Query</text><text x="0" y="33.6" fill="#f08c00" direction="ltr" dominant-baseline="text-before-edge" font-family="Cascadia, Segoe UI Emoji" font-size="28" text-anchor="start" style="white-space:pre" transform="translate(645 138.5) rotate(0 49.21875 33.60000000000002)">String</text></g></svg>